# xmcd
#
# Track frame offsets: 
#        150
#        12554
#        24660
#        40033
#        57655
#        68441
#        82931
#        104016
#        130336
#        149901
#        164679
#        180281
#
# Disc length: 2608 seconds
#
# Revision: 0
# Processed by: cddbd v1.5.2PL0 Copyright (c) Steve Scherf et al.
# Submitted via: ExactAudioCopy v1.0b3
#
DISCID=a90a2e0c
DTITLE=Radio On - The Lovespread
DYEAR=2007
DGENRE=Rock
TTITLE0=I'd Rather Couchsit a Priestess
TTITLE1=You Wreck My Mind
TTITLE2=In Front of Mirrors
TTITLE3=Yes Man
TTITLE4=Worksmanstomp
TTITLE5=The Constant Rise
TTITLE6=The Lovespread
TTITLE7=Permanent Scar
TTITLE8=That's When the Night
TTITLE9=Don't Rely on the Tracks
TTITLE10=The Final Romance
TTITLE11=Bottles and Bibles
EXTD=
EXTT0=
EXTT1=
EXTT2=
EXTT3=
EXTT4=
EXTT5=
EXTT6=
EXTT7=
EXTT8=
EXTT9=
EXTT10=
EXTT11=
PLAYORDER=
